<svg version="1.1" id="Layer_1" xmlns="http://www.w3.org/2000/svg" xmlns:xlink="http://www.w3.org/1999/xlink" x="0px" y="0px"
	 width="100%" viewBox="0 0 1008 368" enable-background="new 0 0 1008 368" xml:space="preserve">
<path fill="#000000" opacity="1.000000" stroke="none" 
	d="
M166.153366,226.878906 
	C148.333633,210.791656 139.342377,190.734161 139.101593,167.388885 
	C138.680801,126.589600 168.545242,94.917389 204.706543,87.730141 
	C244.820007,79.757370 279.625397,101.885597 293.471313,129.791565 
	C305.857239,154.755005 305.280945,179.943329 291.868042,204.467422 
	C289.656403,208.511185 289.992523,210.604568 293.320129,213.551575 
	C299.674408,219.179062 305.566620,225.327072 311.687683,231.220490 
	C312.593506,232.092621 313.563019,233.952850 314.866516,233.083160 
	C319.045074,230.295227 321.030762,233.767853 323.220551,235.876175 
	C346.746643,258.526733 370.195190,281.257996 393.636017,303.996948 
	C397.276886,307.528748 397.601044,311.232056 394.146057,314.959656 
	C390.077759,319.348999 385.706848,323.482758 381.229919,327.460327 
	C377.885712,330.431580 373.180878,330.166321 369.915192,326.992432 
	C346.137238,303.883148 322.418365,280.713013 298.644531,257.599457 
	C296.750458,255.757980 295.677368,253.969528 297.507660,251.555054 
	C299.126282,249.419846 298.028534,247.952286 296.474426,246.403793 
	C290.572540,240.523163 284.662018,234.647827 278.906433,228.625473 
	C276.736481,226.354950 275.101685,226.284424 272.585236,228.250000 
	C239.802170,253.856598 198.893417,253.374023 166.153366,226.878906 
M238.460373,103.086563 
	C230.341537,100.965370 222.165619,100.296097 213.751007,101.088707 
	C173.135605,104.914391 145.465927,144.446854 155.970764,183.861740 
	C163.135239,210.743317 189.007553,233.714951 224.718002,231.949402 
	C264.622955,229.976471 295.383972,190.341629 285.933380,151.505219 
	C279.836639,126.450974 263.432922,111.010704 238.460373,103.086563 
z"/>
<path fill="#000000" opacity="1.000000" stroke="none" 
	d="
M520.813477,154.775146 
	C525.138550,155.722122 528.689209,157.470032 533.071472,160.428207 
	C533.071472,150.705704 533.194397,141.979324 533.018982,133.258926 
	C532.932800,128.975342 533.932800,126.287094 538.874207,125.957558 
	C546.122131,125.474220 547.371887,126.386360 547.370483,133.649277 
	C547.365234,160.447495 547.373108,187.245834 547.267700,214.043716 
	C547.256287,216.951874 548.584167,220.701416 544.094360,221.919205 
	C538.731812,223.373718 534.913086,221.864044 532.276062,216.929916 
	C514.915222,225.663803 499.407288,223.298523 487.256470,207.560120 
	C479.023651,196.896545 479.178802,181.655426 486.102600,169.953537 
	C492.077026,159.856201 507.466614,151.371750 520.813477,154.775146 
M520.660950,169.695419 
	C513.905579,167.244019 507.846863,169.152084 502.312439,173.004044 
	C495.281464,177.897614 492.941895,188.465240 496.868866,196.317581 
	C501.254486,205.087006 510.615265,209.526962 519.208740,206.913651 
	C527.148254,204.499191 533.113525,197.619019 533.671021,190.233292 
	C534.359924,181.105423 530.240906,174.331848 520.660950,169.695419 
z"/>
<path fill="#000000" opacity="1.000000" stroke="none" 
	d="
M730.077881,207.581451 
	C733.041077,211.292572 732.101990,215.134384 731.464783,218.857315 
	C731.056274,221.244034 728.922668,221.933319 726.867004,221.900024 
	C716.385925,221.730286 705.808167,222.237198 695.449951,220.978760 
	C678.654114,218.938248 666.941284,202.129227 668.864624,184.373825 
	C671.351990,161.411545 692.648071,147.437973 713.095398,155.721268 
	C728.821350,162.091919 734.170898,175.994843 732.944946,191.322296 
	C732.658936,194.897842 730.239136,195.388168 727.279785,195.372345 
	C714.460144,195.303757 701.640015,195.302109 688.820068,195.314453 
	C687.543030,195.315674 686.144897,194.920212 685.033936,195.968231 
	C686.565308,202.033722 692.281799,206.535797 699.330688,206.714371 
	C707.483032,206.920914 715.645020,206.734238 723.802734,206.753006 
	C725.784424,206.757568 727.809387,206.461548 730.077881,207.581451 
M685.623596,177.016556 
	C685.079712,178.351425 683.819336,179.484879 684.419922,181.142761 
	C684.739380,181.310410 685.021729,181.587189 685.305908,181.589081 
	C694.129333,181.648117 702.953308,181.734528 711.776184,181.673248 
	C713.658691,181.660187 716.181091,182.661224 717.275269,180.530670 
	C718.386597,178.366699 716.546265,176.456192 715.429749,174.653107 
	C714.265930,172.773834 712.555481,171.445938 710.638367,170.370895 
	C702.141541,165.606232 692.550598,167.958801 685.623596,177.016556 
z"/>
<path fill="#000000" opacity="1.000000" stroke="none" 
	d="
M575.928223,199.117859 
	C580.114014,204.792984 585.416748,207.039505 592.132324,206.789642 
	C599.779419,206.505142 607.448120,206.842636 615.100403,206.642380 
	C619.514954,206.526871 621.433105,208.085220 621.390137,212.713379 
	C621.307068,221.666138 621.271423,222.040588 612.231567,221.935699 
	C603.253174,221.831497 594.141602,222.256622 585.330017,220.890976 
	C563.586121,217.521027 552.867554,194.666122 562.227905,172.887085 
	C568.449768,158.410553 584.847412,150.272156 599.609253,154.334106 
	C615.229370,158.632263 624.956726,173.785477 622.745361,189.995270 
	C622.216553,193.871185 620.648071,195.450562 616.650879,195.391739 
	C604.002136,195.205505 591.349426,195.273972 578.698242,195.290527 
	C576.429993,195.293503 573.258240,194.763229 575.928223,199.117859 
M578.707642,173.199310 
	C576.807373,175.449387 574.886902,177.689468 574.460388,181.446487 
	C585.860962,181.839508 596.830811,181.950882 607.910278,181.429764 
	C605.699402,168.046173 590.655518,163.812714 578.707642,173.199310 
z"/>
<path fill="#000000" opacity="1.000000" stroke="none" 
	d="
M869.712891,214.652588 
	C864.362183,220.206451 857.735840,221.775345 850.807434,222.028046 
	C842.652588,222.325485 834.478882,222.176163 826.314270,222.106400 
	C820.993896,222.060959 819.834961,220.703506 819.813232,215.029037 
	C819.787720,208.370102 820.827576,206.931030 826.317200,206.862396 
	C833.814331,206.768661 841.314209,206.912949 848.812866,206.905563 
	C850.807922,206.903595 852.867493,206.999420 854.783020,206.555908 
	C857.805420,205.856110 860.679504,204.490204 860.603638,200.759796 
	C860.530334,197.157288 857.626160,195.986191 854.750122,195.746918 
	C849.948059,195.347427 845.102844,195.462479 840.275574,195.373840 
	C827.524292,195.139694 818.254456,186.572021 818.233337,174.993088 
	C818.210999,162.769226 827.511047,153.845154 840.541443,153.701202 
	C848.039246,153.618362 855.543518,153.855087 863.035889,153.637680 
	C867.795166,153.499603 869.089355,155.781525 868.981445,160.070404 
	C868.800354,167.266327 868.220337,168.280029 862.795166,168.318085 
	C855.296875,168.370667 847.797852,168.325867 840.299133,168.316620 
	C836.270203,168.311646 832.873413,169.339035 832.368713,174.032043 
	C831.966125,177.775742 835.114990,180.651031 839.945862,180.875610 
	C844.933960,181.107513 849.975708,180.631622 854.926941,181.130630 
	C873.588806,183.011551 880.760620,199.046600 869.712891,214.652588 
z"/>
<path fill="#000000" opacity="1.000000" stroke="none" 
	d="
M434.331421,221.086029 
	C417.464325,216.007004 408.680542,204.624435 408.592133,188.168701 
	C408.508484,172.608017 417.478668,160.351547 432.418549,155.613281 
	C451.295380,149.626389 473.206116,165.015320 474.323608,185.045105 
	C475.446167,205.166794 463.210052,219.613297 443.157349,221.939835 
	C440.261902,222.275772 437.544067,221.410355 434.331421,221.086029 
M431.397369,171.736465 
	C425.061279,176.386581 421.420654,182.397644 422.343872,190.490005 
	C423.213379,198.111557 427.465698,203.295471 434.484009,206.207016 
	C441.987915,209.320007 448.648651,207.273041 454.217285,202.021698 
	C459.617401,196.929260 462.179932,190.615906 459.694458,183.058273 
	C455.698486,170.907745 444.260071,166.071762 431.397369,171.736465 
z"/>
<path fill="#000000" opacity="1.000000" stroke="none" 
	d="
M748.601562,167.813293 
	C756.808350,155.223328 768.660828,151.505020 782.234192,154.082565 
	C794.951294,156.497482 803.092468,164.806000 805.790283,177.655457 
	C807.162659,184.191574 806.161133,190.927505 806.280518,197.571472 
	C806.388062,203.560699 806.333740,209.553864 806.279724,215.544647 
	C806.229370,221.127853 805.136169,222.158218 799.484070,222.214951 
	C793.276001,222.277267 791.998291,221.270340 791.959229,215.750946 
	C791.887268,205.599823 791.960876,195.447723 791.948853,185.296066 
	C791.936279,174.643158 785.338074,167.589828 775.314148,167.475220 
	C765.693359,167.365219 758.465088,174.877335 758.379395,185.273285 
	C758.294312,195.590744 758.191833,205.914230 758.456604,216.225845 
	C758.589600,221.407333 755.959412,222.321503 751.635498,222.282837 
	C747.469727,222.245590 744.516541,221.705139 744.617493,216.395370 
	C744.838806,204.749939 744.672974,193.097488 744.705078,181.447998 
	C744.718262,176.683594 746.145813,172.285583 748.601562,167.813293 
z"/>
<path fill="#000000" opacity="1.000000" stroke="none" 
	d="
M398.735046,171.911957 
	C396.298431,175.028900 394.065674,174.011780 391.506622,172.563843 
	C385.421143,169.120590 379.133575,166.950943 371.992249,169.626404 
	C362.009644,173.366348 356.498718,184.569901 360.049866,194.410263 
	C363.876343,205.013550 375.183533,210.230652 385.586212,206.115921 
	C387.590912,205.322952 389.615936,204.410324 391.364929,203.175247 
	C395.833832,200.019501 396.333069,199.692581 402.370453,207.894394 
	C405.545624,212.207901 401.838135,213.889252 399.220062,215.662949 
	C377.657593,230.270767 349.666382,218.209869 345.103424,192.409622 
	C342.813751,179.463272 350.675262,164.352875 363.108612,157.802261 
	C375.980255,151.020676 392.157166,152.884796 401.841980,162.158524 
	C403.620026,163.861130 403.971863,165.399734 402.394287,167.328979 
	C401.234619,168.747162 400.121643,170.203552 398.735046,171.911957 
z"/>
<path fill="#000000" opacity="1.000000" stroke="none" 
	d="
M649.351196,197.408600 
	C650.809387,204.452377 652.627991,206.164017 659.179321,207.084625 
	C664.362488,207.812958 664.749390,208.826263 664.333740,216.672165 
	C664.111938,220.857590 661.782593,221.429886 658.366516,221.412445 
	C645.566101,221.347092 635.607971,212.487488 635.322083,198.801926 
	C634.846680,176.034225 635.436646,153.242996 635.672241,130.462646 
	C635.728943,124.981300 640.078430,126.146019 643.385559,125.944290 
	C646.995117,125.724113 649.438782,126.613235 649.412903,131.103622 
	C649.286621,153.059433 649.346741,175.016342 649.351196,197.408600 
z"/>
<path fill="#000000" opacity="1.000000" stroke="none" 
	d="
M223.700302,139.862076 
	C224.735428,136.459183 225.690659,133.451019 226.612350,130.432648 
	C229.199707,121.959412 231.424850,120.843132 241.032806,123.782135 
	C238.874374,130.666946 236.675903,137.554031 234.555954,144.465179 
	C228.469589,164.306946 222.442627,184.166946 216.335617,204.002304 
	C213.516235,213.159592 211.593719,214.106293 201.292603,211.369659 
	C208.734100,187.651062 216.169601,163.951614 223.700302,139.862076 
z"/>
<path fill="#000000" opacity="1.000000" stroke="none" 
	d="
M183.066086,156.132111 
	C180.233505,157.814560 176.254562,158.108627 175.665924,161.268539 
	C174.730759,166.288742 174.918518,171.526794 175.677322,176.632156 
	C175.877014,177.975769 177.532608,178.428345 178.710907,179.021072 
	C183.017197,181.187210 187.317825,183.365860 191.653839,185.471329 
	C200.167984,189.605637 200.863495,191.106720 198.632996,200.951447 
	C197.021317,201.688904 195.679642,200.708008 194.402206,200.091614 
	C185.720123,195.902359 177.110367,191.562943 168.421951,187.387115 
	C165.363983,185.917389 163.899048,183.788422 164.077774,180.333237 
	C164.463898,172.868042 164.706085,165.398727 164.148361,157.922043 
	C163.826675,153.609665 165.753738,150.948853 169.896515,149.176865 
	C177.990051,145.715012 185.854187,141.717834 193.825409,137.968079 
	C195.292236,137.278076 196.702286,136.170029 198.727371,137.050629 
	C199.807434,140.148087 199.216537,143.471237 199.199539,146.740616 
	C199.187866,148.987732 197.377640,149.690918 195.679596,150.448822 
	C191.582031,152.277786 187.496613,154.134003 183.066086,156.132111 
z"/>
<path fill="#000000" opacity="1.000000" stroke="none" 
	d="
M257.534119,155.559692 
	C254.642593,154.177719 252.105103,152.916336 249.515549,151.772842 
	C241.288498,148.139954 240.386230,146.170273 243.022705,136.885086 
	C246.278122,136.677765 248.967575,138.579910 251.735199,139.811813 
	C259.188477,143.129349 266.463959,146.844040 273.875916,150.258041 
	C276.544434,151.487198 277.418182,153.339203 277.369141,156.173584 
	C277.227844,164.337677 277.264465,172.505325 277.283813,180.671448 
	C277.289185,182.938217 277.099823,185.032608 274.762848,186.191025 
	C265.360901,190.851334 255.964294,195.522461 246.544037,200.145432 
	C245.998672,200.413101 245.261993,200.290955 244.651642,200.346802 
	C241.735931,191.707916 242.700333,189.166656 250.259674,185.359909 
	C254.426071,183.261780 258.548798,181.064621 262.795624,179.142868 
	C265.601440,177.873169 266.959839,176.010895 266.657410,172.925674 
	C266.560394,171.935699 266.487762,170.894577 266.681274,169.932632 
	C268.194489,162.410934 264.928040,157.905121 257.534119,155.559692 
z"/>
</svg>